<?xml version="1.0" encoding="UTF-8"?>
<svg id="Camada_2" data-name="Camada 2" xmlns="http://www.w3.org/2000/svg" viewBox="0 0 1043.52 934.28">
  <defs>
    <style>
      .cls-1 {
        fill: #004f7b;
      }
    </style>
  </defs>
  <g id="Design_Elements" data-name="Design Elements">
    <path class="cls-1" d="M603.69,0c-22.31,64.69-81.89,208.21-227.52,323.51-93.99,74.42-187.97,108.7-248.46,125.26,66.26-2.43,132.51-4.86,198.77-7.29-47.98,24.38-113,63.92-178.24,126.39-62.27,59.63-103.48,119.78-129.77,165.19,42.35-34.82,88.16-69.96,137.58-104.72,126.78-89.18,250.1-156.76,361.8-208.31-77.28,45.51-165.31,104.59-256.67,180.7-93.47,77.87-168.84,155.6-228.33,224.74,24.7-17.97,55.47-37.52,92.4-55.44,44.33-21.51,85.35-34.75,119.1-43.12L0,934.28c99.38-45.48,198.76-90.96,298.14-136.44-1.96-5.97-31.51-101.39,30.8-174.54,39.57-46.46,92.66-56.3,108.42-58.63l-61.6,82.13,170.43-133.47c-13,28.06-33.91,64.91-67.36,101.75-52.07,57.36-109.27,86.9-144.14,101.54,37.33-3.59,110.22-15.9,183.16-66.63,111.03-77.23,144.92-189.78,153.6-222.9l-92.4,40.04c26.6-40.23,58.54-82.62,96.91-125.15,125.25-138.82,264.58-218.82,367.55-264.88-119.92,54.38-239.83,108.76-359.75,163.14l133.47-104.72-238.19,6.16c3.27-15.38,11.35-42.13,33.26-66.63,47.01-52.55,116.84-49.03,126.9-48.36L603.69,0Z"/>
  </g>
</svg>