<?xml version="1.0" encoding="UTF-8"?>
<svg id="Camada_2" data-name="Camada 2" xmlns="http://www.w3.org/2000/svg" xmlns:xlink="http://www.w3.org/1999/xlink" viewBox="0 0 717.09 717.09">
  <defs>
    <style>
      .cls-1 {
        fill: url(#Gradiente_sem_nome_9);
      }

      .cls-2 {
        fill: #fff;
      }

      .cls-3 {
        fill: #a32b2b;
      }
    </style>
    <linearGradient id="Gradiente_sem_nome_9" data-name="Gradiente sem nome 9" x1="165.52" y1="172.72" x2="651.12" y2="640.21" gradientUnits="userSpaceOnUse">
      <stop offset="0" stop-color="#333"/>
      <stop offset=".84" stop-color="#1a1a1a"/>
    </linearGradient>
  </defs>
  <g id="VICCS_Design__2027_Logo" data-name="VICCS_Design _2027_Logo">
    <g>
      <rect class="cls-1" width="717.09" height="717.09" rx="104.57" ry="104.57"/>
      <g>
        <path class="cls-2" d="M74.5,167.76h171.92v6.22c-1.95-.77-10.71-4-20.48,0-10.04,4.11-13.95,12.9-15,15.36-3.66,8.61-2.11,16.38-1.46,19.02,39.46,91.27,78.92,182.55,118.38,273.82,1.27,4.93,2.53,9.86,3.8,14.79l-31.09,47.55-8.05,4.02L143.63,221.53c-2.39-6.53-7.04-16.47-16.09-25.97-3.89-4.08-12.81-13.22-27.8-18.29-10.5-3.55-19.68-3.65-25.24-3.29v-6.22Z"/>
        <g>
          <path class="cls-3" d="M336.04,489.3c7.77-57.78,21.81-94.03,33.86-116.97,10.3-19.6,16.03-32.67,27.49-58.79,7.55-17.21,11.61-27.45,14.28-41.02,3.67-18.62,2.98-34.55,1.76-45.29,5.69,15.29,12.74,39.75,12.75,70.36.02,36-9.7,62.55-14.95,76.51-10.44,27.74-23.45,46.4-40.45,70.8-13.24,19-25.59,33.96-34.74,44.41Z"/>
          <path class="cls-3" d="M372.09,277.22c2.16-8.63,4.19-21.62,1.99-37.04-1.12-7.84-3.1-20.69-12.07-34.39-9.4-14.35-21.26-21.58-25.13-23.78-18.89-10.76-37.28-9.87-44.37-9.14v-5.12c33.47.27,66.94.55,100.41.82,28.93.36,57.86.72,86.79,1.08,22.2,2.47,39.88,8.19,52.03,13.1,21.31,8.61,35.46,18.72,38.41,20.85,17.84,12.93,29.34,26.61,35.48,34.75,3.48,4.62,11.63,15.93,19.02,32.19,7.35,16.18,10.35,29.34,12.44,38.78,5.71,25.75,5.56,46.05,5.49,50.85-.44,28.13-6.51,49.41-9.14,57.8-8.64,27.49-21.09,46.2-25.61,52.68-13.47,19.3-27.15,31.08-31.09,34.39-3.71,3.11-16.51,13.58-35.85,23.05-3.84,1.88-21.41,10.32-47.19,15.73-14.79,3.11-25.62,3.81-40.97,4.76-25.28,1.55-37.96.34-77.91,0-15.88-.13-28.78-.07-36.94,0l21.22-29.26c6.27,3.54,14.76,7.74,25.24,11.34,6.46,2.22,19.48,6.2,36.58,7.68,7.64.66,20.12,1.66,36.21-1.1,6.99-1.2,20.43-4.1,35.85-11.71,5.83-2.88,19.15-9.99,32.92-23.05,18.24-17.3,26.8-35.1,34.02-50.48,3.73-7.95,13.63-30.32,18.29-61.45,4.24-28.31,2.09-50.13.37-66.58-1.61-15.34-3.98-36.57-13.53-62.55-6.88-18.72-12.87-35.01-28.53-50.85-2.78-2.81-14.87-14.71-34.38-23.41-8.09-3.61-17.33-7.63-30.36-8.41-6.83-.41-18.27-.15-31.09,4.76-12.57,4.81-20.43,11.78-25.61,16.46-14.47,13.08-21.3,27.12-25.97,36.95-4.27,8.99-9.62,22.72-12.25,40.51-1.58-.06-3.15-.12-4.73-.18Z"/>
        </g>
      </g>
    </g>
  </g>
</svg>